<svg xmlns="http://www.w3.org/2000/svg" viewBox="0 0 200 200" fill="none" stroke="#e8edf5" stroke-width="1.2" stroke-linecap="round">
  <!-- main branch -->
  <path d="M0 10 C 40 15, 70 35, 90 70 C 110 105, 130 130, 165 145"/>
  <path d="M5 0 C 45 5, 80 25, 100 60 C 120 95, 145 120, 180 130"/>

  <!-- leaves -->
  <path d="M20 14 C 28 4, 40 4, 46 12 C 38 16, 26 18, 20 14 Z" fill="#e8edf5" fill-opacity="0.25"/>
  <path d="M45 28 C 55 18, 68 20, 72 30 C 62 36, 50 36, 45 28 Z" fill="#e8edf5" fill-opacity="0.2"/>
  <path d="M70 55 C 82 48, 94 52, 97 63 C 86 68, 74 65, 70 55 Z" fill="#e8edf5" fill-opacity="0.18"/>
  <path d="M95 85 C 108 80, 120 86, 122 97 C 110 101, 99 96, 95 85 Z" fill="#e8edf5" fill-opacity="0.15"/>
  <path d="M120 110 C 133 105, 145 112, 147 123 C 135 127, 124 121, 120 110 Z" fill="#e8edf5" fill-opacity="0.12"/>

  <!-- flowers (simple 5-petal blossoms) -->
  <g transform="translate(34,32)">
    <ellipse cx="0" cy="-9" rx="6" ry="9" fill="#e8edf5" fill-opacity="0.3"/>
    <ellipse cx="8" cy="-3" rx="6" ry="9" fill="#e8edf5" fill-opacity="0.3" transform="rotate(72 8 -3)"/>
    <ellipse cx="5" cy="7" rx="6" ry="9" fill="#e8edf5" fill-opacity="0.3" transform="rotate(144 5 7)"/>
    <ellipse cx="-5" cy="7" rx="6" ry="9" fill="#e8edf5" fill-opacity="0.3" transform="rotate(216 -5 7)"/>
    <ellipse cx="-8" cy="-3" rx="6" ry="9" fill="#e8edf5" fill-opacity="0.3" transform="rotate(288 -8 -3)"/>
    <circle cx="0" cy="0" r="3" fill="#d9b873" fill-opacity="0.6"/>
  </g>

  <g transform="translate(108,95) scale(0.8)">
    <ellipse cx="0" cy="-9" rx="6" ry="9" fill="#e8edf5" fill-opacity="0.22"/>
    <ellipse cx="8" cy="-3" rx="6" ry="9" fill="#e8edf5" fill-opacity="0.22" transform="rotate(72 8 -3)"/>
    <ellipse cx="5" cy="7" rx="6" ry="9" fill="#e8edf5" fill-opacity="0.22" transform="rotate(144 5 7)"/>
    <ellipse cx="-5" cy="7" rx="6" ry="9" fill="#e8edf5" fill-opacity="0.22" transform="rotate(216 -5 7)"/>
    <ellipse cx="-8" cy="-3" rx="6" ry="9" fill="#e8edf5" fill-opacity="0.22" transform="rotate(288 -8 -3)"/>
    <circle cx="0" cy="0" r="3" fill="#d9b873" fill-opacity="0.5"/>
  </g>

  <g transform="translate(158,142) scale(0.65)">
    <ellipse cx="0" cy="-9" rx="6" ry="9" fill="#e8edf5" fill-opacity="0.18"/>
    <ellipse cx="8" cy="-3" rx="6" ry="9" fill="#e8edf5" fill-opacity="0.18" transform="rotate(72 8 -3)"/>
    <ellipse cx="5" cy="7" rx="6" ry="9" fill="#e8edf5" fill-opacity="0.18" transform="rotate(144 5 7)"/>
    <ellipse cx="-5" cy="7" rx="6" ry="9" fill="#e8edf5" fill-opacity="0.18" transform="rotate(216 -5 7)"/>
    <ellipse cx="-8" cy="-3" rx="6" ry="9" fill="#e8edf5" fill-opacity="0.18" transform="rotate(288 -8 -3)"/>
    <circle cx="0" cy="0" r="3" fill="#d9b873" fill-opacity="0.4"/>
  </g>

  <!-- small sprigs -->
  <path d="M10 5 l-6 -4 M14 9 l-4 -7 M18 13 l-2 -8" stroke-width="1"/>
  <path d="M150 130 l8 4 M155 135 l5 8 M160 140 l2 9" stroke-width="1"/>
</svg>
